HIERARCHY
ROOT Hips
{
	OFFSET -3.958830 18.904000 13.208200
	CHANNELS 6 Xposition Yposition Zposition Zrotation Yrotation Xrotation 
	JOINT LHipJoint
	{
		OFFSET 0.000000 0.000000 0.000000
		CHANNELS 3 Zrotation Yrotation Xrotation
		JOINT LeftUpLeg
		{
			OFFSET 1.800000 -1.400000 0.085000
			CHANNELS 3 Zrotation Yrotation Xrotation
			JOINT LeftLeg
			{
				OFFSET 2.215000 -6.000000 0.000000
				CHANNELS 3 Zrotation Yrotation Xrotation
				JOINT LeftFoot
				{
					OFFSET 2.500000 -6.900000 0.000000
					CHANNELS 3 Zrotation Yrotation Xrotation
					JOINT LeftToeBase
					{
						OFFSET 0.200000 -0.500000 1.950000
						CHANNELS 3 Zrotation Yrotation Xrotation
						End Site
						{
							OFFSET 0.000000 0.000000 0.000000
						}
					}
				}
			}
		}
	}
	JOINT RHipJoint
	{
		OFFSET 0.000000 0.000000 0.000000
		CHANNELS 3 Zrotation Yrotation Xrotation
		JOINT RightUpLeg
		{
			OFFSET -1.800000 -1.400000 0.085000
			CHANNELS 3 Zrotation Yrotation Xrotation
			JOINT RightLeg
			{
				OFFSET -2.215000 -6.000000 0.000000
				CHANNELS 3 Zrotation Yrotation Xrotation
				JOINT RightFoot
				{
					OFFSET -2.500000 -6.900000 0.000000
					CHANNELS 3 Zrotation Yrotation Xrotation
					JOINT RightToeBase
					{
						OFFSET -0.200000 -0.500000 1.950000
						CHANNELS 3 Zrotation Yrotation Xrotation
						End Site
						{
							OFFSET 0.000000 0.000000 0.000000
						}
					}
				}
			}
		}
	}
	JOINT LowerBack
	{
		OFFSET 0.000000 0.000000 0.000000
		CHANNELS 3 Zrotation Yrotation Xrotation
		JOINT Spine
		{
			OFFSET -0.087000 1.940000 -0.288900
			CHANNELS 3 Zrotation Yrotation Xrotation
			JOINT Spine1
			{
				OFFSET 0.000000 1.950000 0.060000
				CHANNELS 3 Zrotation Yrotation Xrotation
				JOINT Neck
				{
					OFFSET 0.000000 0.000000 0.000000
					CHANNELS 3 Zrotation Yrotation Xrotation
					JOINT Neck1
					{
						OFFSET 0.000000 1.600000 0.340000
						CHANNELS 3 Zrotation Yrotation Xrotation
						JOINT Head
						{
							OFFSET 0.000000 1.667000 -0.240000
							CHANNELS 3 Zrotation Yrotation Xrotation
							End Site
							{
								OFFSET 0.000000 0.000000 0.000000
							}
						}
					}
				}
				JOINT LeftShoulder
				{
					OFFSET 0.000000 0.000000 0.000000
					CHANNELS 3 Zrotation Yrotation Xrotation
					JOINT LeftArm
					{
						OFFSET 2.700000 1.550000 -0.730000
						CHANNELS 3 Zrotation Yrotation Xrotation
						JOINT LeftForeArm
						{
							OFFSET 5.450000 0.000000 0.000000
							CHANNELS 3 Zrotation Yrotation Xrotation
							JOINT LeftHand
							{
								OFFSET 3.450000 0.000000 0.000000
								CHANNELS 3 Zrotation Yrotation Xrotation
								JOINT LeftHandIndex1
								{
									OFFSET 0.750000 0.000000 0.000000
									CHANNELS 3 Zrotation Yrotation Xrotation
									End Site
									{
										OFFSET 0.000000 0.000000 0.000000
									}
								}
							}
						}
					}
				}
				JOINT RightShoulder
				{
					OFFSET 0.000000 0.000000 0.000000
					CHANNELS 3 Zrotation Yrotation Xrotation
					JOINT RightArm
					{
						OFFSET -2.700000 1.550000 -0.730000
						CHANNELS 3 Zrotation Yrotation Xrotation
						JOINT RightForeArm
						{
							OFFSET -5.450000 0.000000 0.000000
							CHANNELS 3 Zrotation Yrotation Xrotation
							JOINT RightHand
							{
								OFFSET -3.450000 0.000000 0.000000
								CHANNELS 3 Zrotation Yrotation Xrotation
								JOINT RightHandIndex1
								{
									OFFSET -0.750000 0.000000 0.000000
									CHANNELS 3 Zrotation Yrotation Xrotation
									End Site
									{
										OFFSET 0.000000 0.000000 0.000000
									}
								}
							}
						}
					}
				}
			}
		}
	}
}
MOTION
Frames: 7
Frame Time: 0.016667
-2.957160 18.543260 1.118300 -5.096686 20.121586 -9.586728 -15.432655 14.245524 2.533656 11.835955 -0.059729 -2.754604 -6.095380 7.255434 17.038720 -0.590523 6.041059 2.754508 -0.102000 -0.165990 -0.439700 17.974391 -10.400723 2.731016 -2.056572 0.811138 -10.460149 8.411335 -5.183821 11.239038 -0.082025 -3.605354 3.176951 0.184790 1.068220 0.271580 -3.156765 -3.775277 -7.262984 1.630940 -3.550217 18.615424 -3.910479 -1.614020 20.806168 -1.779905 -2.840464 -11.530212 -8.006157 0.393524 29.643137 1.420290 -5.113000 -9.266900 20.420042 -24.550466 1.876735 26.898441 -26.058929 -13.799406 64.855022 -10.455812 -11.144351 -5.038762 2.740058 0.315680 0.555540 -0.328020 0.248090 -17.394009 25.401686 7.744811 -21.672905 9.385748 -17.349959 -68.729531 -11.723020 0.903701 2.592789 -1.925967 -0.519900 0.749940 0.520260 0.116000 
-2.957740 18.544200 1.124860 -5.214620 20.292946 -9.210652 -15.403339 14.225062 2.496694 11.546626 -0.026510 -3.126988 -5.421199 6.987869 16.880207 -0.615740 5.890836 2.790263 -0.095590 -0.172570 -0.434300 18.000061 -10.459509 2.754392 -1.752116 0.900455 -10.901406 7.997263 -5.079654 11.276128 -0.080809 -3.535889 3.183856 0.170620 1.046390 0.284690 -3.255378 -3.621353 -7.252867 2.176086 -3.809187 18.142707 -4.469004 -1.653615 20.387819 -1.626343 -2.778224 -11.528209 -7.968243 0.548240 30.318174 2.109450 -5.204960 -9.530360 21.104628 -24.022503 1.632762 27.326396 -25.901892 -13.331439 62.181297 -11.072222 -10.788097 -5.003761 2.771847 0.337220 0.532320 -0.311920 0.240020 -18.328810 24.789524 7.474889 -22.583211 10.675811 -16.525950 -62.640813 -11.564427 0.605497 2.628718 -1.855984 -0.505630 0.725720 0.523300 0.112440 
-2.955220 18.549480 1.128590 -5.314627 20.018406 -9.491316 -15.412936 14.334478 2.472828 11.269959 0.164501 -2.937154 -4.174723 6.677415 16.955923 -0.601239 5.715729 2.820119 -0.071270 -0.156330 -0.407330 17.975052 -10.495283 2.785246 -1.041316 0.917604 -10.642392 6.675837 -4.818516 11.393441 -0.098823 -3.395901 3.222173 0.143140 0.974820 0.280620 -3.214735 -3.701951 -7.274346 2.092976 -3.944129 18.783621 -4.355386 -1.537288 19.891019 -1.416232 -3.150935 -11.714716 -8.955776 0.858542 31.778771 3.802770 -5.476830 -10.893550 21.871507 -22.796945 1.234075 27.213486 -24.943117 -12.557499 58.872674 -13.858986 -11.054961 -4.909966 2.804751 0.388790 0.456240 -0.257840 0.223630 -19.424856 24.163551 7.486363 -25.429105 10.589541 -14.729625 -51.187024 -6.951483 -1.455080 2.641753 -1.686516 -0.468980 0.694060 0.506790 0.108180 
-2.953570 18.537490 1.138350 -5.360839 20.245396 -9.344755 -15.417999 14.410744 2.474655 11.550852 0.188526 -3.256410 -3.826835 6.691500 17.362081 -0.576963 5.712759 2.793597 -0.140090 -0.251860 -0.440240 17.945842 -10.514753 2.785419 -1.359062 1.097743 -11.430662 6.919733 -4.974949 12.283171 -0.065282 -3.374768 3.217632 0.069130 0.962970 0.290580 -3.183693 -3.773261 -7.310615 2.161253 -4.297920 18.474693 -4.414302 -1.883725 19.314855 -1.094458 -3.133359 -12.251469 -9.421994 1.611049 34.076560 4.439540 -5.214540 -9.368260 22.616428 -21.505349 1.140460 25.793802 -23.559379 -11.084902 56.351151 -17.921374 -11.722124 -4.881941 2.843354 0.403790 0.445280 -0.260600 0.181670 -20.676044 23.073723 7.497980 -25.994203 10.949714 -12.079576 -43.394033 3.080312 -4.015398 2.494278 -1.584698 -0.463790 0.643700 0.546480 0.101330 
-2.943980 18.522720 1.139920 -4.982948 20.413539 -9.489576 -15.473755 14.581669 2.460211 11.221192 0.310909 -2.964901 -2.341972 6.399201 17.770105 -0.587107 5.698763 2.821639 -0.216750 -0.356070 -0.485980 17.865447 -10.536642 2.745382 -2.151951 1.117139 -11.838660 6.518049 -5.000775 12.944754 -0.008721 -3.378356 3.239724 0.016740 1.016330 0.291420 -2.996411 -3.991268 -7.293714 1.214786 -4.073767 18.463512 -3.324770 -2.032057 19.267138 -0.865711 -2.895158 -12.438082 -9.234275 1.980018 35.513882 3.979760 -4.967580 -7.092890 22.877159 -20.116395 1.278072 22.895179 -22.429867 -9.807638 56.850219 -21.528736 -13.233434 -4.903756 2.840843 0.395450 0.489370 -0.305920 0.165580 -21.226804 21.920471 7.551977 -24.434111 10.049067 -10.316156 -43.609542 16.349832 -7.164435 2.234099 -1.588904 -0.497270 0.645150 0.591380 0.095000 
-2.937980 18.517740 1.138840 -4.198445 20.377232 -9.882644 -15.457131 14.542392 2.432180 10.596617 0.512943 -1.830410 -1.672258 6.299369 17.953852 -0.500062 5.683000 2.861663 -0.217360 -0.323680 -0.505040 17.878063 -10.664762 2.689745 -3.372319 0.960518 -11.841498 6.551321 -5.108865 13.442654 -0.002145 -3.498117 3.213185 0.019640 1.043310 0.301990 -3.052711 -3.715160 -7.234150 0.769686 -3.642751 18.612120 -3.328593 -1.865623 19.691496 -0.974867 -2.290360 -11.869306 -7.864820 2.077474 36.267615 3.224950 -4.286530 -5.003300 22.547000 -18.544682 1.602497 20.684271 -21.373094 -8.845000 59.034603 -24.995495 -15.318421 -4.835944 2.889333 0.310440 0.534330 -0.325550 0.191370 -20.589062 20.166434 7.228081 -19.757398 10.698661 -9.727224 -51.685243 29.188401 -13.401674 2.015004 -1.618803 -0.459240 0.621160 0.562400 0.129260 
-2.926370 18.520550 1.139300 -3.425387 20.670986 -10.059857 -15.483890 14.586326 2.460599 9.954365 0.610031 -0.944344 -1.149177 6.214883 18.088118 -0.503535 5.735467 2.849714 -0.284640 -0.416770 -0.512520 17.838690 -10.705388 2.642461 -4.541014 0.834328 -11.760110 6.786693 -5.304571 13.750392 0.015893 -3.561402 3.198103 -0.032740 1.052740 0.305620 -2.969063 -3.731745 -7.231471 -0.343026 -3.073904 18.978823 -2.310627 -1.954102 20.072397 -1.206494 -1.569786 -12.129022 -6.624571 2.125092 37.820384 2.454310 -3.471440 -4.026410 22.279541 -17.732767 1.992991 18.001217 -19.747919 -8.225036 61.303911 -27.593068 -17.325415 -4.826626 2.835343 0.336720 0.555030 -0.333930 0.152180 -19.755898 19.090203 7.960242 -12.340469 10.174071 -10.130098 -67.134715 38.215253 -24.495514 1.819492 -1.439828 -0.490730 0.617480 0.603650 0.100770 
